# xmcd
#
# Track frame offsets:
#	150
#	18000
#	35962
#	46012
#	59287
#	72712
#	85650
#	110325
#	119175
#	134212
#	145200
#	165675
#	177937
#	198375
#	215175
#	226275
#	239775
#	261337
#	272587
#	280225
#
# Disc length: 3897 seconds
#
# Revision: 3
# Processed by: cddbd v1.4PL0 Copyright (c) Steve Scherf et al.
# Submitted via: audiograbber 1.80.04
#
DISCID=410f3714
DTITLE=V. A. - Coal Mining Women
DYEAR=1997
DGENRE=Bluegrass
TTITLE0=Hazel Dickens - Coal Mining Woman
TTITLE1=Phyllis Boyens - Blue Diamond Mines
TTITLE2=Sarah Gunning - Dreadful Memories
TTITLE3=Hazel Dickens - The Yablonski Murder
TTITLE4=Phyllis Boyens - Lawrence Jones
TTITLE5=Reel World String Band - Draglines
TTITLE6=Hazel Dickens - Coal Miner's Grave
TTITLE7=Sarah Gunning - Come All You Coal Miners
TTITLE8=Hazel Dickens - Black Lung
TTITLE9=Phyllis Boyens - Dream Of A Miner's Child
TTITLE10=Hazel Dickens - The Mannington Mine Disaster
TTITLE11=Sarah Gunning - That 25 Cents That You Paid
TTITLE12=Hazel Dickens - Clay County Miner
TTITLE13=Hazel Dickens - Clara Sullivan's Letter
TTITLE14=Reel World String Band - What She Aims To Be
TTITLE15=Hazel Dickens - Coal Tattoo
TTITLE16=Sarah Gunning - Hello Coal Miner
TTITLE17=Reel World String Band - The Battle Of Jericol
TTITLE18=Florence Reece - Which Side Are You On?
TTITLE19=Hazel Dickens - They'll Never Keep Us Down
EXTD=
EXTT0=
EXTT1=
EXTT2=
EXTT3=
EXTT4=
EXTT5=
EXTT6=
EXTT7=
EXTT8=
EXTT9=
EXTT10=
EXTT11=
EXTT12=
EXTT13=
EXTT14=
EXTT15=
EXTT16=
EXTT17=
EXTT18=
EXTT19=
PLAYORDER=
